<?xml version="1.0" encoding="utf-8"?>
<!-- Generator: Adobe Illustrator 23.0.3, SVG Export Plug-In . SVG Version: 6.00 Build 0)  -->
<svg version="1.1" id="Layer_1" xmlns="http://www.w3.org/2000/svg" xmlns:xlink="http://www.w3.org/1999/xlink" x="0px" y="0px"
	 viewBox="0 0 594.5 595.3" style="enable-background:new 0 0 594.5 595.3;" xml:space="preserve">
<style type="text/css">
	.st0{fill:#FFFFFF;}
</style>
<title>check</title>
<path class="st0" d="M219.6,415.9c5.4-8,9.4-13.7,13.2-19.5C314.9,270.6,397.1,144.8,479.2,19C493.2-2.3,510.4-5.7,531,8.8
	c15.4,10.9,30.9,21.7,46.3,32.6c18.6,13.2,22.3,31.7,9.8,50.9C529.8,180.3,472.4,268.2,415,356c-45.3,69.4-90.7,138.9-136.1,208.3
	c-1,1.6-2.1,3.2-3.1,4.8c-21.9,33.5-54.6,33.5-80.3,7.7c-38.1-38.1-75-77.5-112.5-116.3c-23.8-24.7-47.6-49.3-71.3-74
	c-15.5-16.1-15.4-34.9,0.1-51.1c13.6-14.2,27.2-28.4,40.9-42.5c16.6-17.2,34.4-17.2,51.3,0.3c36.4,37.6,72.7,75.4,109,113.1
	C215.2,408.8,216.9,412,219.6,415.9z"/>
</svg>
