<svg id="Layer_1" data-name="Layer 1" xmlns="http://www.w3.org/2000/svg" viewBox="0 0 122.28 122.19"><defs><style>.cls-1{fill:#0d8cc4;}</style></defs><title>facebook-icon</title><path class="cls-1" d="M68.2,121.41H49V75.25H39.86V59H49V57.59c0-3.79-.15-7.66.15-11.45C49.56,40,52,34.85,57.52,31.59a16.63,16.63,0,0,1,8.26-2.43c5.53-.07,11.07,0,16.67,0V44.93H72.37c-2.5,0-4.09,1.36-4.17,3.79-.15,3.33,0,6.67,0,10.15H82.76c-.53,5.54-1.14,10.84-1.67,16.38H68.2Z" transform="translate(0 0.39)"/><path class="cls-1" d="M90.91-.39c2.1.4,4.2.7,6.2,1.2a33.33,33.33,0,0,1,24.6,27.3,71.07,71.07,0,0,1,.5,10.3c.1,16.3.1,32.7,0,49a32.81,32.81,0,0,1-9.8,24.2,33.32,33.32,0,0,1-24.2,10.1c-18.1,0-36.2.2-54.3,0-14.6-.2-25-7.3-31.2-20.4A30.92,30.92,0,0,1,0,87.91V33.41A33.76,33.76,0,0,1,27.41.21l3.9-.6ZM61,110.91h13.4c4.5,0,9,.1,13.5-.1a31,31,0,0,0,8-1.2c9.8-3.3,15.5-11.7,15.6-22.2V34.11a26.52,26.52,0,0,0-.5-5.6c-2.8-11.1-12-18.1-23.4-18.1-17.7.1-35.3,0-53,0a23.08,23.08,0,0,0-10.4,2.1c-8.8,4.4-13.3,11.6-13.3,21.4-.1,17.9,0,35.8,0,53.7A23,23,0,0,0,33.51,111H61Z" transform="translate(0 0.39)"/></svg>