<svg id="facebook-icon" xmlns="http://www.w3.org/2000/svg" width="63.391" height="63.336" viewBox="0 0 63.391 63.336">
  <path id="Path_30" data-name="Path 30" d="M54.55,76.963H44.6V53.036H39.86V44.613H44.6v-.731c0-1.965-.078-3.971.078-5.935A8.87,8.87,0,0,1,49.014,30.4a8.62,8.62,0,0,1,4.282-1.26c2.866-.036,5.738,0,8.641,0v8.174H56.712a1.934,1.934,0,0,0-2.162,1.965c-.078,1.726,0,3.457,0,5.261H62.1c-.275,2.872-.591,5.619-.866,8.491H54.55Z" transform="translate(-19.194 -13.828)" fill="#0d8cc4"/>
  <path id="Path_31" data-name="Path 31" d="M47.119-.39c1.089.207,2.177.363,3.214.622A17.277,17.277,0,0,1,63.084,14.383a36.842,36.842,0,0,1,.259,5.339c.052,8.449.052,16.95,0,25.4a17.007,17.007,0,0,1-5.08,12.544A17.271,17.271,0,0,1,45.72,62.9c-9.382,0-18.764.1-28.146,0C10.005,62.8,4.614,59.117,1.4,52.326A16.027,16.027,0,0,1,0,45.38V17.13A17.5,17.5,0,0,1,14.2-.079L16.225-.39ZM31.615,57.3h6.946c2.333,0,4.665.052,7-.052a16.069,16.069,0,0,0,4.147-.622c5.08-1.711,8.034-6.065,8.086-11.507V17.493a13.746,13.746,0,0,0-.259-2.9A12.134,12.134,0,0,0,45.4,5.208c-9.175.052-18.3,0-27.473,0A11.964,11.964,0,0,0,12.54,6.3,11.628,11.628,0,0,0,5.646,17.389c-.052,9.278,0,18.557,0,27.835a11.922,11.922,0,0,0,11.72,12.124H31.615Z" transform="translate(0.008 0.39)" fill="#0d8cc4"/>
</svg>
