<svg id="instagram.icon_1_" data-name="instagram.icon (1)" xmlns="http://www.w3.org/2000/svg" width="63.385" height="63.336" viewBox="0 0 63.385 63.336">
  <path id="Path_32" data-name="Path 32" d="M47.114,0c1.089.207,2.177.363,3.214.622A17.278,17.278,0,0,1,63.08,14.773a36.84,36.84,0,0,1,.259,5.339c.052,8.449.052,16.95,0,25.4a17.007,17.007,0,0,1-5.08,12.544A17.27,17.27,0,0,1,45.715,63.29c-9.382,0-18.764.1-28.146,0C10,63.187,4.61,59.507,1.4,52.716A16.027,16.027,0,0,1,0,45.77V17.52A17.5,17.5,0,0,1,14.2.311L16.221,0Zm-15.5,57.692h6.946c2.333,0,4.665.052,7-.052a16.06,16.06,0,0,0,4.147-.622c5.08-1.711,8.034-6.065,8.086-11.507V17.883a13.747,13.747,0,0,0-.259-2.9A12.134,12.134,0,0,0,45.4,5.6c-9.175.052-18.3,0-27.473,0A11.966,11.966,0,0,0,12.54,6.687,11.628,11.628,0,0,0,5.646,17.779c-.052,9.278,0,18.557,0,27.835A11.926,11.926,0,0,0,17.361,57.744H31.616Z" transform="translate(0.008)" fill="#0d8cc4"/>
  <path id="Path_33" data-name="Path 33" d="M62.256,45.98A16.328,16.328,0,1,1,45.98,29.6h.052A16.382,16.382,0,0,1,62.256,45.98ZM45.928,56.606A10.678,10.678,0,1,0,35.25,45.928h0A10.663,10.663,0,0,0,45.928,56.606Z" transform="translate(-14.253 -14.257)" fill="#0d8cc4"/>
  <path id="Path_34" data-name="Path 34" d="M90.047,20.4A4.121,4.121,0,1,1,85.9,24.547,4.159,4.159,0,0,1,90.047,20.4Z" transform="translate(-41.37 -9.826)" fill="#0d8cc4"/>
</svg>
