<?xml version="1.0" encoding="utf-8"?>
<!-- Generator: Adobe Illustrator 23.0.3, SVG Export Plug-In . SVG Version: 6.00 Build 0)  -->
<svg version="1.1" id="Layer_1" xmlns="http://www.w3.org/2000/svg" xmlns:xlink="http://www.w3.org/1999/xlink" x="0px" y="0px"
	 viewBox="0 0 122.2 122.2" style="enable-background:new 0 0 122.2 122.2;" xml:space="preserve">
<style type="text/css">
	.st0{fill:#0D8CC4;}
</style>
<title>instagram.icon</title>
<path class="st0" d="M90.9,0c2.1,0.4,4.2,0.7,6.2,1.2c12.9,3.3,22.6,14.1,24.6,27.3c0.4,3.4,0.6,6.9,0.5,10.3
	c0.1,16.3,0.1,32.7,0,49c0.2,9.1-3.3,17.8-9.8,24.2c-6.3,6.5-15.1,10.2-24.2,10.1c-18.1,0-36.2,0.2-54.3,0
	c-14.6-0.2-25-7.3-31.2-20.4C0.8,97.5-0.1,92.9,0,88.3c0-18.2,0-36.3,0-54.5C0,17.6,11.5,3.6,27.4,0.6C28.7,0.4,30,0.2,31.3,0H90.9z
	 M61,111.3L61,111.3h13.4c4.5,0,9,0.1,13.5-0.1c2.7,0,5.4-0.5,8-1.2c9.8-3.3,15.5-11.7,15.6-22.2c0-17.8,0-35.5,0-53.3
	c0-1.9-0.1-3.7-0.5-5.6C108.2,17.8,99,10.8,87.6,10.8c-17.7,0.1-35.3,0-53,0c-3.6-0.1-7.2,0.6-10.4,2.1
	c-8.8,4.4-13.3,11.6-13.3,21.4c-0.1,17.9,0,35.8,0,53.7c-0.2,12.7,9.9,23.2,22.6,23.4c0.3,0,0.5,0,0.8,0H61z"/>
<path class="st0" d="M92.6,61.2c0,17.4-14.2,31.5-31.6,31.4S29.6,78.4,29.6,61s14.2-31.5,31.6-31.4c0,0,0.1,0,0.1,0
	C78.6,29.8,92.6,43.8,92.6,61.2z M61.1,81.7c11.4,0,20.6-9.2,20.6-20.6c0-11.4-9.2-20.6-20.6-20.6s-20.6,9.2-20.6,20.6c0,0,0,0,0,0
	C40.5,72.5,49.7,81.7,61.1,81.7C61.1,81.7,61.1,81.7,61.1,81.7z"/>
<path class="st0" d="M93.9,20.4c4.4,0,7.9,3.6,7.9,8s-3.6,7.9-8,7.9c-4.3,0-7.8-3.5-7.9-7.9C85.9,24,89.5,20.4,93.9,20.4z"/>
</svg>
