<?xml version="1.0" encoding="utf-8"?>
<!-- Generator: Adobe Illustrator 23.0.3, SVG Export Plug-In . SVG Version: 6.00 Build 0)  -->
<svg version="1.1" id="Layer_1" xmlns="http://www.w3.org/2000/svg" xmlns:xlink="http://www.w3.org/1999/xlink" x="0px" y="0px"
	 viewBox="0 0 595.2 595.3" style="enable-background:new 0 0 595.2 595.3;" xml:space="preserve">
<style type="text/css">
	.st0{fill:#FFFFFF;}
</style>
<title>plus</title>
<path class="st0" d="M357.7,357.8c0,11.2,0,21.9,0,32.7c-0.2,39.7-0.3,79.4-0.9,119.1c-0.2,13.1-1.3,26.3-2.7,39.3
	c-1.8,16.9-11.5,28.8-25.5,37.4c-31.2,19.3-67.4,5-83.5-22.2c-4.7-8-5.6-16.7-5.8-25.5c-0.7-30.8-1.4-61.5-1.7-92.3
	c-0.3-28.4-0.1-56.9-0.1-85.3c0-1-0.1-1.9-0.1-3.2c-1.5-0.1-2.8-0.2-4.1-0.2c-59-0.5-117.9-0.9-176.9-1.3
	c-18.5-0.2-33.8-8-44.2-22.9c-14.2-20-16.2-42-5.9-64.5c4.6-10.2,12.6-17.5,22.2-22.9c11.4-6.4,23.1-10.1,36.6-9.9
	c55.7,0.6,111.5,0.3,167.2,0.3h5.3c0-1.9,0-3.4,0-5c0.3-53.2,0.5-106.5,0.9-159.7c0.1-9.2,0.6-18.4,1.8-27.5
	c1.6-12.7,9.2-22.3,18.5-30.4c7.3-6.4,16.2-10.8,25.8-12.8c4.7-1,9.6-0.2,14.4-0.7c15.5-1.8,28.1,4.4,39.1,14.5s17.3,23.1,17.9,38.1
	c0.9,21.9,1.4,43.9,1.5,65.9c0.2,38.1,0.1,76.2,0.1,114.3c0,0.9,0.1,1.7,0.2,3.3h4.6c51.5,0.1,103,0,154.5,0.3
	c10.8,0,21.8-0.1,32.2,2c28.2,5.8,44.2,25.5,45.8,54.2c0.6,8.9-0.6,17.9-3.5,26.4c-2.7,7.6-6.7,14.5-12.8,19.8
	c-12.5,10.8-26.5,18-43.7,18c-44.4,0-88.9,0.4-133.3,0.6c-13.5,0.1-27.1,0-40.6,0C360.3,357.6,359.3,357.7,357.7,357.8z"/>
</svg>
